<svg id="Layer_1" data-name="Layer 1" xmlns="http://www.w3.org/2000/svg" viewBox="0 0 396 214"><defs><style>.cls-1{fill:#b3b3b3;}.cls-2{fill:gray;}</style></defs><rect class="cls-1" x="1.5" y="1.5" width="393" height="211" rx="40.47"/><path class="cls-2" d="M692,536a39,39,0,0,1,39,39V705a39,39,0,0,1-39,39H380a39,39,0,0,1-39-39V575a39,39,0,0,1,39-39H692m0-3H380a42,42,0,0,0-42,42V705a42,42,0,0,0,42,42H692a42,42,0,0,0,42-42V575a42,42,0,0,0-42-42Z" transform="translate(-338 -533)"/><rect class="cls-1" x="24.68" y="13.5" width="347.62" height="186.48" rx="35.66"/><path class="cls-2" d="M674.64,548a34.19,34.19,0,0,1,34.16,34.16V697.32a34.2,34.2,0,0,1-34.16,34.16H398.34a34.2,34.2,0,0,1-34.16-34.16V582.16A34.19,34.19,0,0,1,398.34,548h276.3m0-3H398.34a37.16,37.16,0,0,0-37.16,37.16V697.32a37.16,37.16,0,0,0,37.16,37.16h276.3a37.16,37.16,0,0,0,37.16-37.16V582.16A37.16,37.16,0,0,0,674.64,545Z" transform="translate(-338 -533)"/><rect class="cls-1" x="161.5" y="70.5" width="73" height="73" rx="13.74"/><path class="cls-2" d="M558.76,605A12.25,12.25,0,0,1,571,617.24v45.52A12.25,12.25,0,0,1,558.76,675H513.24A12.25,12.25,0,0,1,501,662.76V617.24A12.25,12.25,0,0,1,513.24,605h45.52m0-3H513.24A15.24,15.24,0,0,0,498,617.24v45.52A15.24,15.24,0,0,0,513.24,678h45.52A15.24,15.24,0,0,0,574,662.76V617.24A15.24,15.24,0,0,0,558.76,602Z" transform="translate(-338 -533)"/><path class="cls-1" d="M367.54,593.5a5,5,0,0,1-5-5v-6.92a35.08,35.08,0,0,1,35-35H532.46a5,5,0,0,1,5,5v36.92a5,5,0,0,1-5,5Z" transform="translate(-338 -533)"/><path class="cls-2" d="M532.46,548a3.55,3.55,0,0,1,3.54,3.54v36.92a3.55,3.55,0,0,1-3.54,3.54H367.54a3.55,3.55,0,0,1-3.54-3.54v-6.92A33.58,33.58,0,0,1,397.54,548H532.46m0-3H397.54A36.54,36.54,0,0,0,361,581.54v6.92a6.54,6.54,0,0,0,6.54,6.54H532.46a6.54,6.54,0,0,0,6.54-6.54V551.54a6.54,6.54,0,0,0-6.54-6.54Z" transform="translate(-338 -533)"/><path class="cls-1" d="M540.54,593.5a5,5,0,0,1-5-5V551.54a5,5,0,0,1,5-5H675.46a35.08,35.08,0,0,1,35,35v6.92a5,5,0,0,1-5,5Z" transform="translate(-338 -533)"/><path class="cls-2" d="M675.46,548A33.58,33.58,0,0,1,709,581.54v6.92a3.55,3.55,0,0,1-3.54,3.54H540.54a3.55,3.55,0,0,1-3.54-3.54V551.54a3.55,3.55,0,0,1,3.54-3.54H675.46m0-3H540.54a6.54,6.54,0,0,0-6.54,6.54v36.92a6.54,6.54,0,0,0,6.54,6.54H705.46a6.54,6.54,0,0,0,6.54-6.54v-6.92A36.54,36.54,0,0,0,675.46,545Z" transform="translate(-338 -533)"/><path class="cls-1" d="M397.54,732.5a35.08,35.08,0,0,1-35-35v-6.92a5,5,0,0,1,5-5H532.46a5,5,0,0,1,5,5v36.92a5,5,0,0,1-5,5Z" transform="translate(-338 -533)"/><path class="cls-2" d="M532.46,687a3.55,3.55,0,0,1,3.54,3.54v36.92a3.55,3.55,0,0,1-3.54,3.54H397.54A33.58,33.58,0,0,1,364,697.46v-6.92a3.55,3.55,0,0,1,3.54-3.54H532.46m0-3H367.54a6.54,6.54,0,0,0-6.54,6.54v6.92A36.54,36.54,0,0,0,397.54,734H532.46a6.54,6.54,0,0,0,6.54-6.54V690.54a6.54,6.54,0,0,0-6.54-6.54Z" transform="translate(-338 -533)"/><path class="cls-1" d="M540.54,732.5a5,5,0,0,1-5-5V690.54a5,5,0,0,1,5-5H705.46a5,5,0,0,1,5,5v6.92a35.08,35.08,0,0,1-35,35Z" transform="translate(-338 -533)"/><path class="cls-2" d="M705.46,687a3.55,3.55,0,0,1,3.54,3.54v6.92A33.58,33.58,0,0,1,675.46,731H540.54a3.55,3.55,0,0,1-3.54-3.54V690.54a3.55,3.55,0,0,1,3.54-3.54H705.46m0-3H540.54a6.54,6.54,0,0,0-6.54,6.54v36.92a6.54,6.54,0,0,0,6.54,6.54H675.46A36.54,36.54,0,0,0,712,697.46v-6.92a6.54,6.54,0,0,0-6.54-6.54Z" transform="translate(-338 -533)"/><rect class="cls-1" x="24.5" y="60.5" width="137" height="45" rx="6.38"/><path class="cls-2" d="M493.12,595a4.89,4.89,0,0,1,4.88,4.88v32.24a4.89,4.89,0,0,1-4.88,4.88H368.88a4.89,4.89,0,0,1-4.88-4.88V599.88a4.89,4.89,0,0,1,4.88-4.88H493.12m0-3H368.88a7.88,7.88,0,0,0-7.88,7.88v32.24a7.88,7.88,0,0,0,7.88,7.88H493.12a7.88,7.88,0,0,0,7.88-7.88V599.88a7.88,7.88,0,0,0-7.88-7.88Z" transform="translate(-338 -533)"/><rect class="cls-1" x="24.5" y="108.5" width="137" height="41" rx="6.05"/><path class="cls-2" d="M493.45,643a4.55,4.55,0,0,1,4.55,4.55v28.9a4.55,4.55,0,0,1-4.55,4.55H368.55a4.55,4.55,0,0,1-4.55-4.55v-28.9a4.55,4.55,0,0,1,4.55-4.55h124.9m0-3H368.55a7.55,7.55,0,0,0-7.55,7.55v28.9a7.55,7.55,0,0,0,7.55,7.55h124.9a7.55,7.55,0,0,0,7.55-7.55v-28.9a7.55,7.55,0,0,0-7.55-7.55Z" transform="translate(-338 -533)"/><rect class="cls-1" x="235.5" y="60.5" width="137" height="45" rx="6.38"/><path class="cls-2" d="M704.12,595a4.89,4.89,0,0,1,4.88,4.88v32.24a4.89,4.89,0,0,1-4.88,4.88H579.88a4.89,4.89,0,0,1-4.88-4.88V599.88a4.89,4.89,0,0,1,4.88-4.88H704.12m0-3H579.88a7.88,7.88,0,0,0-7.88,7.88v32.24a7.88,7.88,0,0,0,7.88,7.88H704.12a7.88,7.88,0,0,0,7.88-7.88V599.88a7.88,7.88,0,0,0-7.88-7.88Z" transform="translate(-338 -533)"/><rect class="cls-1" x="235.5" y="108.5" width="137" height="41" rx="6.05"/><path class="cls-2" d="M704.45,643a4.55,4.55,0,0,1,4.55,4.55v28.9a4.55,4.55,0,0,1-4.55,4.55H579.55a4.55,4.55,0,0,1-4.55-4.55v-28.9a4.55,4.55,0,0,1,4.55-4.55h124.9m0-3H579.55a7.55,7.55,0,0,0-7.55,7.55v28.9a7.55,7.55,0,0,0,7.55,7.55h124.9a7.55,7.55,0,0,0,7.55-7.55v-28.9a7.55,7.55,0,0,0-7.55-7.55Z" transform="translate(-338 -533)"/></svg>