<?xml version="1.0" encoding="utf-8"?>
<!-- Generator: Adobe Illustrator 25.0.1, SVG Export Plug-In . SVG Version: 6.00 Build 0)  -->
<svg version="1.1" id="Layer_1" xmlns="http://www.w3.org/2000/svg" xmlns:xlink="http://www.w3.org/1999/xlink" x="0px" y="0px"
	 viewBox="0 0 1024 1280" style="enable-background:new 0 0 1024 1280;" xml:space="preserve">
<style type="text/css">
	.st0{fill:#ECA23F;}
	.st1{fill:#EE692C;}
	.st2{fill:#D82E2B;}
</style>
<g>
	<path class="st0" d="M831,584c0,106.04-85.96,192-192,192c-45.41,0-87.13-15.76-120-42.12c43.9-35.18,72-89.25,72-149.88
		s-28.1-114.7-72-149.88C551.87,407.76,593.59,392,639,392C745.04,392,831,477.96,831,584z"/>
</g>
<g>
	<ellipse class="st1" cx="519" cy="584" rx="72" ry="149.88"/>
</g>
<g>
	<path class="st2" d="M519,733.88C486.13,760.24,444.41,776,399,776c-106.04,0-192-85.96-192-192s85.96-192,192-192
		c45.41,0,87.13,15.76,120,42.12c-43.9,35.18-72,89.25-72,149.88S475.1,698.7,519,733.88z"/>
</g>
</svg>
